<svg t="1665802058933" class="icon" viewBox="0 0 1024 1024" version="1.1" xmlns="http://www.w3.org/2000/svg" p-id="7996" width="30" height="30"><path d="M170.666667 853.333333h682.666666v-85.333333h-288l236.8-315.733333A42.624 42.624 0 0 0 768 384h-85.333333V213.333333a42.666667 42.666667 0 0 0-42.666667-42.666666H384a42.666667 42.666667 0 0 0-42.666667 42.666666v170.666667H256a42.709333 42.709333 0 0 0-34.133333 68.266667l236.8 315.733333H170.666667v85.333333z m213.333333-384a42.666667 42.666667 0 0 0 42.666667-42.666666V256h170.666666v170.666667a42.666667 42.666667 0 0 0 42.666667 42.666666h42.666667l-170.666667 227.541334L341.333333 469.333333h42.666667z" fill="#515151" p-id="7997"></path></svg>