<svg t="1665750699658" class="icon" viewBox="0 0 1024 1024" version="1.1" xmlns="http://www.w3.org/2000/svg" p-id="4564" width="20" height="20"><path d="M896 554.666667h-85.333333V426.666667a298.666667 298.666667 0 1 0-597.333334 0v128H128A85.426667 85.426667 0 0 0 42.666667 640v170.666667a85.426667 85.426667 0 0 0 85.333333 85.333333h106.666667a21.333333 21.333333 0 0 0 21.333333-21.333333V426.666667c0-141.16 114.84-256 256-256s256 114.84 256 256v448a21.333333 21.333333 0 0 0 21.333333 21.333333h106.666667a85.426667 85.426667 0 0 0 85.333333-85.333333V640a85.426667 85.426667 0 0 0-85.333333-85.333333z" fill="#bfbfbf" p-id="4565"></path></svg>