<?xml version="1.0" standalone="no"?>
<!DOCTYPE svg PUBLIC "-//W3C//DTD SVG 1.1//EN" "http://www.w3.org/Graphics/SVG/1.1/DTD/svg11.dtd"><svg t="1667817552947"
    class="icon" viewBox="0 0 1024 1024" version="1.1" xmlns="http://www.w3.org/2000/svg" p-id="2561"
    xmlns:xlink="http://www.w3.org/1999/xlink" width="16" height="16">
    <path
        d="M128 469.333333a42.666667 42.666667 0 1 1-42.666667 42.666667 42.713333 42.713333 0 0 1 42.666667-42.666667m0-42.666666a85.333333 85.333333 0 1 0 85.333333 85.333333 85.333333 85.333333 0 0 0-85.333333-85.333333z m384 42.666666a42.666667 42.666667 0 1 1-42.666667 42.666667 42.713333 42.713333 0 0 1 42.666667-42.666667m0-42.666666a85.333333 85.333333 0 1 0 85.333333 85.333333 85.333333 85.333333 0 0 0-85.333333-85.333333z m384 42.666666a42.666667 42.666667 0 1 1-42.666667 42.666667 42.713333 42.713333 0 0 1 42.666667-42.666667m0-42.666666a85.333333 85.333333 0 1 0 85.333333 85.333333 85.333333 85.333333 0 0 0-85.333333-85.333333z"
        fill="#5C5C66" p-id="2562"></path>
</svg>