<?xml version="1.0" standalone="no"?>
<!DOCTYPE svg PUBLIC "-//W3C//DTD SVG 1.1//EN" "http://www.w3.org/Graphics/SVG/1.1/DTD/svg11.dtd"><svg class="icon"
    width="16px" height="16.00px" viewBox="0 0 1024 1024" version="1.1" xmlns="http://www.w3.org/2000/svg">
    <path fill="#2c2c2c"
        d="M469.333333 896a42.666667 42.666667 0 1 1 42.666667 42.666667 42.713333 42.713333 0 0 1-42.666667-42.666667m-42.666666 0a85.333333 85.333333 0 1 0 85.333333-85.333333 85.333333 85.333333 0 0 0-85.333333 85.333333z m42.666666-384a42.666667 42.666667 0 1 1 42.666667 42.666667 42.713333 42.713333 0 0 1-42.666667-42.666667m-42.666666 0a85.333333 85.333333 0 1 0 85.333333-85.333333 85.333333 85.333333 0 0 0-85.333333 85.333333z m42.666666-384a42.666667 42.666667 0 1 1 42.666667 42.666667 42.713333 42.713333 0 0 1-42.666667-42.666667m-42.666666 0A85.333333 85.333333 0 1 0 512 42.666667a85.333333 85.333333 0 0 0-85.333333 85.333333z" />
</svg>