<svg t="1666611716480" class="icon" viewBox="0 0 1024 1024" version="1.1" xmlns="http://www.w3.org/2000/svg" p-id="4847" width="25" height="25"><path d="M312.96 192a120.96 120.96 0 0 1 120.746667 120.746667v120.746666h-120.746667a120.746667 120.746667 0 0 1 0-241.493333m0-64a184.96 184.96 0 1 0 0 369.706667h128a56.746667 56.746667 0 0 0 56.746667-56.746667v-128A184.96 184.96 0 0 0 312.96 128zM433.706667 590.293333v120.746667a120.746667 120.746667 0 1 1-120.746667-120.746667h120.746667m7.253333-64h-128a184.96 184.96 0 1 0 184.746667 184.746667v-128a56.746667 56.746667 0 0 0-56.746667-56.746667z" fill="#707070" p-id="4848"></path><path d="M711.04 192a120.746667 120.746667 0 1 1 0 241.493333h-120.746667v-120.533333A120.96 120.96 0 0 1 711.04 192m0-64a184.96 184.96 0 0 0-184.746667 184.96v128a56.746667 56.746667 0 0 0 56.746667 56.746667h128a184.96 184.96 0 1 0 0-369.706667z" fill="#707070" p-id="4849"></path><path d="M711.04 590.293333a120.746667 120.746667 0 1 1-120.746667 120.746667v-120.746667h120.746667m0-64h-128a56.746667 56.746667 0 0 0-56.746667 56.746667v128a184.96 184.96 0 1 0 184.746667-184.746667z" fill="#707070" p-id="4850"></path></svg>