<?xml version="1.0" standalone="no"?>
<!DOCTYPE svg PUBLIC "-//W3C//DTD SVG 1.1//EN" "http://www.w3.org/Graphics/SVG/1.1/DTD/svg11.dtd"><svg class="icon"
    width="16px" height="16.00px" viewBox="0 0 1024 1024" version="1.1" xmlns="http://www.w3.org/2000/svg">
    <path fill="#2c2c2c"
        d="M512 0C229.376 0 0 229.376 0 512s229.376 512 512 512 512-229.376 512-512S794.624 0 512 0z m0 732.16c-121.344 0-220.16-98.816-220.16-220.16s98.816-220.16 220.16-220.16 220.16 98.816 220.16 220.16-98.816 220.16-220.16 220.16zM512 361.472c-82.944 0-150.528 67.584-150.528 150.528s67.584 150.528 150.528 150.528 150.528-67.584 150.528-150.528-67.584-150.528-150.528-150.528z m0 232.448c-45.056 0-81.92-36.864-81.92-81.92s36.864-81.92 81.92-81.92 81.92 36.864 81.92 81.92-36.864 81.92-81.92 81.92z" />
</svg>