<?xml version="1.0" standalone="no"?><!DOCTYPE svg PUBLIC "-//W3C//DTD SVG 1.1//EN" "http://www.w3.org/Graphics/SVG/1.1/DTD/svg11.dtd"><svg t="1667222670573" class="icon" viewBox="0 0 1024 1024" version="1.1" xmlns="http://www.w3.org/2000/svg" p-id="10139" xmlns:xlink="http://www.w3.org/1999/xlink" width="200" height="200"><path d="M511.999 512.002m-511.998 0a511.998 511.998 0 1 0 1023.996 0 511.998 511.998 0 1 0-1023.996 0Z" fill="#BE3D27" p-id="10140"></path><path d="M511.999 512.002m-407.00441 0a407.00441 407.00441 0 1 0 814.00882 0 407.00441 407.00441 0 1 0-814.00882 0Z" fill="#E65439" p-id="10141"></path><path d="M545.942867 647.843469v-49.789805l42.265835-44.255827c16.761935-6.757974 34.609865-19.903922 42.393835-45.435823 29.651884-5.813977 52.031797-31.939875 52.031796-63.297753 0-27.291893-16.959934-50.613802-40.90584-60.039765l6.803974-40.505842a179.457299 179.457299 0 0 0 3.507986-20.883918l1.027996-6.113976h-0.523998a180.039297 180.039297 0 0 0 0.523998-13.031949c0-99.161613-80.385686-179.547299-179.549299-179.547299-99.159613 0-179.545299 80.385686-179.545298 179.547299 0 4.387983 0.209999 8.721966 0.519998 13.031949h-0.519998l1.023996 6.113976a178.549303 178.549303 0 0 0 3.511986 20.883918l6.827973 40.651841c-23.753907 9.517963-40.539842 32.737872-40.539841 59.891766 0 35.631861 28.881887 64.517748 64.515748 64.517748 3.405987 0 6.745974-0.267999 10.007961-0.775997l5.00398 29.803884 56.773778 59.443768v49.789805l-155.875391 79.999688v84.797669c0 1.235995 0.05 2.46399 0.128 3.691985 0.02 0.343999 0.05 0.685997 0.077999 1.027996 0.078 0.979996 0.179999 1.957992 0.307999 2.931989 0.036 0.267999 0.062 0.537998 0.102 0.803997 0.175999 1.213995 0.385998 2.423991 0.635997 3.627985 0.046 0.229999 0.106 0.457998 0.156 0.689998 0.221999 1.007996 0.467998 2.011992 0.741997 3.011988 0.082 0.295999 0.163999 0.597998 0.249999 0.893996a66.61174 66.61174 0 0 0 2.54999 7.205972c0.098 0.235999 0.203999 0.469998 0.303999 0.705998 0.453998 1.045996 0.933996 2.085992 1.441994 3.121987 0.082 0.159999 0.155999 0.323999 0.237999 0.483998 0.609998 1.217995 1.253995 2.427991 1.941992 3.627986 0.032 0.054 0.066 0.108 0.094 0.16a81.99968 81.99968 0 0 0 2.385991 3.881985 89.987648 89.987648 0 0 0 5.315979 7.297971c0.905996 1.125996 1.843993 2.239991 2.819989 3.347987l0.102 0.115999a111.867563 111.867563 0 0 0 6.809973 7.043973 131.307487 131.307487 0 0 0 7.527971 6.617974l0.004 0.004 0.004 0.002c40.213843 32.759872 112.213562 54.595787 194.35524 54.595787 126.085507 0 228.299108-51.435799 228.299109-114.885551v-84.797669l-155.875392-80.005688z" fill="#BE3D27" p-id="10142"></path><path d="M333.477697 295.662845a179.385299 179.385299 0 0 0 3.507987 20.883918l13.531947 80.555686h322.962738l13.531947-80.555686a178.619302 178.619302 0 0 0 3.511987-20.883918l1.023996-6.113976h-0.519998c0.307999-4.307983 0.519998-8.641966 0.519998-13.031949 0-99.161613-80.385686-179.547299-179.545299-179.547299-99.163613 0-179.549299 80.385686-179.549299 179.547299 0 4.387983 0.209999 8.721966 0.523998 13.031949h-0.523998l1.023996 6.113976z" fill="#2A81C2" p-id="10143"></path><path d="M367.791563 417.092371m-64.517748 0a64.517748 64.517748 0 1 0 129.035496 0 64.517748 64.517748 0 1 0-129.035496 0Z" fill="#323232" p-id="10144"></path><path d="M656.598435 417.092371m-64.515748 0a64.515748 64.515748 0 1 0 129.031496 0 64.515748 64.515748 0 1 0-129.031496 0Z" fill="#323232" p-id="10145"></path><path d="M584.422717 619.871579h-144.847434l-155.875391 79.999687v84.797669c0 63.451752 102.213601 114.885551 228.299108 114.885551s228.295108-51.435799 228.295108-114.885551v-84.797669l-155.871391-79.999687z" fill="#2A81C2" p-id="10146"></path><path d="M317.641759 699.871266l155.875391-79.999687h-33.941867l-155.875391 79.999687v84.797669c0 22.113914 12.429951 42.765833 33.941867 60.291764v-145.089433z" fill="#1669AD" p-id="10147"></path><path d="M584.422717 488.306093h-144.847434v149.331416l0.028 0.02c-0.004 0.361999-0.028 0.717997-0.028 1.081996 0 39.997844 32.425873 72.423717 72.425717 72.423717 39.995844 0 72.421717-32.425873 72.421717-72.423717 0-0.287999-0.02-0.567998-0.02-0.853997l0.02-0.016v-149.563415z" fill="#DE8729" p-id="10148"></path><path d="M584.422717 488.306093h-23.393909v203.723204c14.377944-13.235948 23.393909-32.207874 23.393909-53.291792 0-0.287999-0.02-0.567998-0.02-0.853997l0.02-0.016v-149.561415z" fill="#F79D22" p-id="10149"></path><path d="M677.360354 295.328846h-0.479998c0.285999-3.965985 0.479998-7.957969 0.479998-11.999953 0-91.325643-74.035711-165.359354-165.359354-165.359354-91.327643 0-165.359354 74.033711-165.359354 165.359354 0 4.041984 0.195999 8.033969 0.479998 11.999953h-0.479998l0.945996 5.629978a164.065359 164.065359 0 0 0 3.229988 19.233925l31.987875 190.445256 92.417639 96.769622H548.774856l92.421639-96.769622 31.983875-190.445256a164.631357 164.631357 0 0 0 3.233988-19.233925l0.945996-5.629978z" fill="#F79D22" p-id="10150"></path><path d="M346.641646 283.328893c0 4.041984 0.195999 8.033969 0.479998 11.999953h-0.479998l0.945996 5.629978a164.065359 164.065359 0 0 0 3.229988 19.233925l31.987875 190.445256 92.417639 96.769622h13.565947l-58.327772-96.769622-20.183922-190.445256a252.745013 252.745013 0 0 1-2.041992-19.233925l-0.593997-5.629978h0.299998c-0.179999-3.965985-0.299999-7.957969-0.299998-11.999953 0-91.325643 46.721817-165.359354 104.359592-165.359354-91.327643 0-165.359354 74.033711-165.359354 165.359354z" fill="#DE8729" p-id="10151"></path><path d="M598.890661 377.558525m-1.639994 0a1.639994 1.639994 0 1 0 3.279987 0 1.639994 1.639994 0 1 0-3.279987 0Z" fill="#DE8729" p-id="10152"></path><path d="M499.20105 467.052176l9.999961-12.159953v-110.591568l-10.571959-32.141874h-9.999961l10.571959 32.475873zM531.700923 454.892223h-22.499912l-9.999961 12.159953h42.499834z" fill="#DE8729" p-id="10153"></path><path d="M437.69529 386.724489m-59.451768 0a59.451768 59.451768 0 1 0 118.903536 0 59.451768 59.451768 0 1 0-118.903536 0Z" fill="#2A81C2" p-id="10154"></path><path d="M437.69729 322.272741c-35.539861 0-64.453748 28.913887-64.453748 64.453748s28.913887 64.453748 64.453748 64.453749 64.449748-28.913887 64.449748-64.453749-28.911887-64.453748-64.449748-64.453748z m0 118.905536c-30.027883 0-54.453787-24.427905-54.453787-54.453788s24.425905-54.453787 54.453787-54.453787c30.023883 0 54.449787 24.427905 54.449788 54.453787s-24.427905 54.453787-54.449788 54.453788z" fill="#494A4A" p-id="10155"></path><path d="M590.198695 386.724489m-59.451768 0a59.451768 59.451768 0 1 0 118.903535 0 59.451768 59.451768 0 1 0-118.903535 0Z" fill="#2A81C2" p-id="10156"></path><path d="M590.200695 322.272741c-35.539861 0-64.453748 28.913887-64.453749 64.453748s28.913887 64.453748 64.453749 64.453749 64.449748-28.913887 64.449748-64.453749-28.911887-64.453748-64.449748-64.453748z m0 118.905536c-30.027883 0-54.453787-24.427905-54.453788-54.453788s24.425905-54.453787 54.453788-54.453787c30.023883 0 54.449787 24.427905 54.449787 54.453787s-24.427905 54.453787-54.449787 54.453788z" fill="#494A4A" p-id="10157"></path><path d="M437.69729 386.724489m-10.377959 0a10.377959 10.377959 0 1 0 20.755919 0 10.377959 10.377959 0 1 0-20.755919 0Z" fill="#1669AD" p-id="10158"></path><path d="M590.200695 386.724489m-10.37796 0a10.377959 10.377959 0 1 0 20.755919 0 10.377959 10.377959 0 1 0-20.755919 0Z" fill="#1669AD" p-id="10159"></path><path d="M528.098937 383.438502c-15.163941-9.481963-28.389889-0.263999-28.523888-0.169999l-5.815978-8.135968c0.761997-0.541998 18.863926-13.165949 39.639845-0.17l-5.299979 8.475967zM378.94752 382.558506h-18.491928a4.99998 4.99998 0 1 1 0-9.999961h18.491928a4.99998 4.99998 0 1 1 0 9.999961zM663.546408 382.558506h-13.897946a4.99998 4.99998 0 1 1 0-9.999961h13.897946a4.99998 4.99998 0 1 1 0 9.999961z" fill="#494A4A" p-id="10160"></path><path d="M427.52933 311.118785l71.061722 11.017957v-9.977961l-71.061722-11.019957z" fill="#DE8729" p-id="10161"></path><path d="M427.52933 311.118785l71.061722 11.017957v-9.977961l-71.061722-11.019957z" fill="#DE8729" p-id="10162"></path><path d="M364.473576 333.796696l67.835735-23.861907-4.713981-8.795965-67.835735 23.865906z" fill="#DE8729" p-id="10163"></path><path d="M520.450967 496.138062h-67.235737l9.843961 16.499936 57.391776 24.999902 57.389776-24.999902 9.843961-16.499936z" fill="#BE3D27" p-id="10164"></path><path d="M453.21523 496.138062l8.589966 14.395944h117.293542l8.585966-14.395944h-67.233737z" fill="#E8E9EC" p-id="10165"></path><path d="M357.373604 359.206597l20.869918-25.409901-7.47197-68.715731 25.261901-31.263878 57.181777 15.977937h136.985465l40.979839-20.145921 23.467909 29.179886-8.183968 68.443733 21.277917 25.303901 15.543939-58.147773-9.031965-73.811712-45.159823-65.307745-49.273808-28.483888-54.073789-15.979938-62.687755 7.123972-47.947813 23.445909-41.867836 39.601845-26.601896 54.009789-5.869977 60.623763z" fill="#DDAE2A" p-id="10166"></path><path d="M396.033453 233.817087h-17.281932l-25.261902 31.263878 7.471971 68.715731-7.75997 9.445963 4.171984 15.963938 20.869918-25.409901-7.47197-68.715731zM674.254366 220.617138l-45.159823-65.307745-49.273808-28.483888-54.073789-15.979938-12.479951 1.419994 49.269808 14.559944 49.275807 28.483888 45.159824 65.307745 9.031964 73.811712-11.375955 42.551834 13.113949 15.595939 15.543939-58.147773z" fill="#EDC849" p-id="10167"></path><path d="M613.894602 229.649103l-40.97984 20.145921h17.285933l40.979839-20.145921z" fill="#EDC849" p-id="10168"></path><path d="M590.198695 532.951918m-17.283933 0a17.283932 17.283932 0 1 0 34.567865 0 17.283932 17.283932 0 1 0-34.567865 0Z" fill="#323232" p-id="10169"></path><path d="M591.116691 535.961906c-0.539998 0-0.881997-0.008-1.003996-0.012l0.173999-5.997976c0.361999 0.012 35.561861 0.729997 58.89177-21.955914 13.885946-13.501947 20.927918-32.619873 20.927918-56.817778h5.999977c0 25.903899-7.66597 46.479818-22.783911 61.157761-23.183909 22.507912-55.947781 23.625908-62.205757 23.625907z" fill="#323232" p-id="10170"></path></svg>